<svg xmlns="http://www.w3.org/2000/svg" xmlns:xlink="http://www.w3.org/1999/xlink" viewBox="0,0,256,256" width="64px" height="64px" fill-rule="nonzero"><g fill="#bdbdbd" fill-rule="nonzero" stroke="none" stroke-width="1" stroke-linecap="butt" stroke-linejoin="miter" stroke-miterlimit="10" stroke-dasharray="" stroke-dashoffset="0" font-family="none" font-weight="none" font-size="none" text-anchor="none" style="mix-blend-mode: normal"><g transform="scale(4,4)"><path d="M35.13672,2.38672c-0.21875,-0.00781 -0.4375,0.00391 -0.65625,0.04297l-29.17578,5.14844c-1.91406,0.33984 -3.30469,1.99609 -3.30469,3.9375v38.96875c0,1.94141 1.39063,3.60156 3.30469,3.9375l29.17578,5.14844c0.17188,0.03125 0.34766,0.04297 0.51953,0.04297c0.69922,0 1.38281,-0.24219 1.92969,-0.70312c0.67969,-0.56641 1.07031,-1.40625 1.07031,-2.29687v-6.61328h21c1.65234,0 3,-1.34766 3,-3v-32c0,-1.65234 -1.34766,-3 -3,-3h-21v-6.61719c0,-0.88672 -0.39062,-1.72656 -1.07031,-2.29687c-0.51172,-0.42969 -1.14062,-0.67187 -1.79297,-0.69922zM35.10156,4.38672c0.25391,0.02344 0.44141,0.14453 0.53906,0.23047c0.13672,0.11328 0.35938,0.36328 0.35938,0.76563v51.23047c0,0.40625 -0.22266,0.65625 -0.35937,0.76953c-0.13281,0.11328 -0.42187,0.28906 -0.8125,0.21875l-29.17578,-5.14844c-0.95703,-0.16797 -1.65234,-0.99609 -1.65234,-1.96875v-38.96875c0,-0.97266 0.69531,-1.80078 1.65234,-1.96875l29.17578,-5.14844c0.09766,-0.01953 0.1875,-0.01953 0.27344,-0.01172zM38,14h21c0.55078,0 1,0.44922 1,1v6.39453l-16.44922,8.97656c-0.60547,0.32813 -1.32422,0.32422 -1.92578,-0.00781l-3.625,-2zM20,20c-3.30859,0 -6,2.69141 -6,6v10c0,3.30859 2.69141,6 6,6c3.30859,0 6,-2.69141 6,-6v-10c0,-3.30859 -2.69141,-6 -6,-6zM20,22c2.20703,0 4,1.79297 4,4v10c0,2.20703 -1.79297,4 -4,4c-2.20703,0 -4,-1.79297 -4,-4v-10c0,-2.20703 1.79297,-4 4,-4zM60,23.67188v23.32813c0,0.55078 -0.44922,1 -1,1h-21v-2c0.55469,0 1,-0.44922 1,-1v-2c0,-0.55078 -0.44531,-1 -1,-1v-11.35156l2.66016,1.46484c0.60547,0.33594 1.26953,0.5 1.93359,0.5c0.65625,0 1.3125,-0.16016 1.91406,-0.48828zM43,42c-0.55469,0 -1,0.44922 -1,1v2c0,0.55078 0.44531,1 1,1c0.55469,0 1,-0.44922 1,-1v-2c0,-0.55078 -0.44531,-1 -1,-1zM48,42c-0.55469,0 -1,0.44922 -1,1v2c0,0.55078 0.44531,1 1,1c0.55469,0 1,-0.44922 1,-1v-2c0,-0.55078 -0.44531,-1 -1,-1zM53,42c-0.55469,0 -1,0.44922 -1,1v2c0,0.55078 0.44531,1 1,1c0.55469,0 1,-0.44922 1,-1v-2c0,-0.55078 -0.44531,-1 -1,-1zM58,42c-0.55469,0 -1,0.44922 -1,1v2c0,0.55078 0.44531,1 1,1c0.55469,0 1,-0.44922 1,-1v-2c0,-0.55078 -0.44531,-1 -1,-1z"></path></g></g></svg>